# xmcd CD database file
#
# Track frame offsets:
#	150
#	21496
#	44474
#	67201
#	89324
#
# Disc length: 1351 seconds
#
# Revision: 0
# Processed by: cddbd v1.5.1PL0 Copyright (c) Steve Scherf et al.
# Submitted via: CDex 1.51
#
DISCID=44054505
DTITLE=Fig - After the Rainbow
DYEAR=2003
DGENRE=J-pop
TTITLE0=After the Rainbow
TTITLE1=Find me!
TTITLE2=Hell upgrade
TTITLE3=From sunrise to sunset
TTITLE4=After the Rainbow - epilogue mix
EXTD=YEAR: 2003
EXTT0=
EXTT1=
EXTT2=
EXTT3=
EXTT4=
PLAYORDER=
